<svg xmlns="http://www.w3.org/2000/svg" viewBox="-125 -20 250 40" preserveAspectRatio="xMinYMid meet">
<path fill-opacity="1.0" shape-rendering="GeometricPrecision" style="pointer-events: none;" d="M-94.867 9.41q-.735 0-1.156-.212V8.066q.554.156 1.156.156.773 0 1.172-.469.406-.469.406-1.351V-5.02h1.328V6.292q0 1.485-.75 2.297-.75.82-2.156.82zM-74.508.675q0 2.742-1.39 4.313-1.383 1.57-3.852 1.57-2.523 0-3.898-1.54-1.368-1.546-1.368-4.359 0-2.789 1.375-4.32Q-82.266-5.2-79.734-5.2q2.46 0 3.843 1.563 1.383 1.562 1.383 4.312zm-9.101 0q0 2.32.984 3.523.992 1.196 2.875 1.196 1.898 0 2.867-1.196.969-1.195.969-3.523 0-2.305-.969-3.492-.96-1.195-2.851-1.195-1.899 0-2.891 1.203-.984 1.195-.984 3.484zM-66.125 6.402h-1.328V-5.02h6.367v1.18h-5.039V.34h4.734v1.179h-4.734zM-53.375 6.402h-1.328V-5.02h6.367v1.18h-5.039V.34h4.734v1.179h-4.734zM-40.625 1.652v4.75h-1.328V-5.02h3.133q2.101 0 3.101.804 1.008.805 1.008 2.422 0 2.266-2.297 3.063l3.102 5.133h-1.57l-2.766-4.75zm0-1.141h1.82q1.407 0 2.063-.555.656-.562.656-1.68 0-1.132-.672-1.632-.664-.5-2.14-.5h-1.727zM-21.18 6.402h-6.367V-5.02h6.367v1.18h-5.039v3.68h4.735v1.17h-4.735v4.204h5.04zM-11.234.69l3.047-5.71h1.437l-3.812 6.992v4.43h-1.344V2.034l-3.805-7.054h1.453zM9.313 1.652v4.75H7.984V-5.02h3.133q2.102 0 3.102.804 1.008.805 1.008 2.422 0 2.266-2.297 3.063l3.101 5.133h-1.57l-2.766-4.75zm0-1.141h1.82q1.406 0 2.062-.555.657-.562.657-1.68 0-1.132-.672-1.632-.664-.5-2.14-.5H9.312zM32.305.675q0 2.742-1.39 4.313-1.384 1.57-3.852 1.57-2.524 0-3.899-1.54Q21.797 3.473 21.797.66q0-2.789 1.375-4.32Q24.547-5.2 27.078-5.2q2.461 0 3.844 1.563 1.383 1.562 1.383 4.312zm-9.102 0q0 2.32.985 3.523.992 1.196 2.875 1.196 1.898 0 2.867-1.196.968-1.195.968-3.523 0-2.305-.968-3.492-.961-1.195-2.852-1.195-1.898 0-2.89 1.203-.985 1.195-.985 3.484zM44.414 6.402L40.54-3.723h-.062q.109 1.203.109 2.859v7.266h-1.227V-5.02h2l3.618 9.422h.062l3.649-9.422h1.984V6.402h-1.328v-7.36q0-1.265.11-2.75h-.063l-3.907 10.11zM64.664 6.402h-6.367V-5.02h6.367v1.18h-5.039v3.68h4.734v1.17h-4.734v4.204h5.04zM73.031 1.652v4.75h-1.328V-5.02h3.133q2.102 0 3.102.804 1.007.805 1.007 2.422 0 2.266-2.297 3.063l3.102 5.133h-1.57l-2.766-4.75zm0-1.141h1.82q1.407 0 2.063-.555.656-.562.656-1.68 0-1.132-.672-1.632-.664-.5-2.14-.5H73.03zM96.023.675q0 2.742-1.39 4.313-1.383 1.57-3.852 1.57-2.523 0-3.898-1.54Q85.516 3.473 85.516.66q0-2.789 1.375-4.32Q88.266-5.2 90.797-5.2q2.46 0 3.844 1.563 1.382 1.562 1.382 4.312zm-9.101 0q0 2.32.984 3.523.992 1.196 2.875 1.196 1.899 0 2.867-1.196.97-1.195.97-3.523 0-2.305-.97-3.492-.96-1.195-2.851-1.195-1.899 0-2.89 1.203-.985 1.195-.985 3.484z"></path>
<path fill-opacity="0" shape-rendering="GeometricPrecision" style="pointer-events: none;" d="M-93.41-3.997q-1.883 0-2.977 1.258-1.086 1.25-1.086 3.43 0 2.242 1.047 3.468 1.055 1.22 3 1.22 1.196 0 2.727-.43v1.164q-1.188.445-2.93.445-2.523 0-3.898-1.531-1.368-1.532-1.368-4.352 0-1.766.657-3.094.664-1.328 1.906-2.047 1.25-.718 2.937-.718 1.797 0 3.141.656l-.562 1.14q-1.297-.609-2.594-.609zM-73.793.675q0 2.742-1.39 4.313-1.383 1.57-3.852 1.57-2.524 0-3.899-1.54Q-84.3 3.473-84.3.66q0-2.789 1.375-4.32Q-81.55-5.2-79.02-5.2q2.461 0 3.844 1.563 1.383 1.562 1.383 4.312zm-9.102 0q0 2.32.985 3.523.992 1.196 2.875 1.196 1.898 0 2.867-1.196.969-1.195.969-3.523 0-2.305-.969-3.492-.96-1.195-2.852-1.195-1.898 0-2.89 1.203-.985 1.195-.985 3.484zM-65.41 6.402h-1.328V-5.02h6.367v1.18h-5.04V.34h4.735v1.179h-4.734zM-52.66 6.402h-1.328V-5.02h6.367v1.18h-5.04V.34h4.735v1.179h-4.734zM-34.871 6.402h-6.367V-5.02h6.367v1.18h-5.04v3.68h4.735v1.17h-4.734v4.204h5.039zM-21.465 6.402h-6.367V-5.02h6.367v1.18h-5.039v3.68h4.734v1.17h-4.734v4.204h5.04zM-10.91 6.402h-1.328V-3.841h-3.617v-1.18h8.562v1.18h-3.617zM6.098 6.402L4.676 2.769H.098L-1.31 6.402h-1.343l4.515-11.47H2.98l4.493 11.47zM4.262 1.573L2.934-1.966q-.258-.671-.532-1.648-.172.75-.492 1.648L.566 1.574zM13.543 6.402V-5.02h1.328V5.198h5.04v1.204zM32.723 6.402h-6.368V-5.02h6.368v1.18h-5.04v3.68h4.735v1.17h-4.734v4.204h5.039zM46.207 3.363q0 1.507-1.094 2.351-1.093.844-2.968.844-2.032 0-3.125-.524v-1.28q.703.296 1.53.468.829.172 1.641.172 1.329 0 2-.5.672-.508.672-1.406 0-.594-.242-.97-.234-.382-.797-.702-.554-.32-1.695-.727-1.594-.57-2.281-1.351-.68-.782-.68-2.04 0-1.32.992-2.101.992-.781 2.625-.781 1.703 0 3.133.625l-.414 1.156q-1.414-.594-2.75-.594-1.055 0-1.649.453-.593.453-.593 1.258 0 .594.218.977.22.375.735.695.523.312 1.594.695 1.796.64 2.468 1.375.68.735.68 1.907zM52.66 5.573q0-.523.235-.789.242-.273.687-.273.453 0 .703.273.258.266.258.79 0 .507-.258.78-.258.274-.703.274-.398 0-.664-.242-.258-.25-.258-.813zM70.715 6.402h-1.516l-6.242-9.586h-.062q.125 1.687.125 3.093v6.493h-1.227V-5.02h1.5l6.227 9.547h.062q-.016-.211-.07-1.352-.055-1.148-.04-1.64V-5.02h1.243zM84.723 6.402h-6.368V-5.02h6.368v1.18h-5.04v3.68h4.735v1.17h-4.734v4.204h5.039zM95.277 6.402H93.95V-3.841h-3.617v-1.18h8.563v1.18h-3.618z"></path>
</svg>
